<svg width="100%" height="100%" viewBox="0 0 554 413" fill="none" xmlns="http://www.w3.org/2000/svg">
<path d="M215.859 114.65H5.72205e-06V0H215.859V114.65Z" fill="white"/>
<path d="M215.602 0.771194H0.772762V28.0198H215.602V0.771194Z" fill="#E4E4E4"/>
<path d="M215.859 114.65H5.72205e-06V0H215.859V114.65ZM1.54553 113.107H214.314V1.54237H1.54553V113.107Z" fill="#CACACA"/>
<path d="M97.3848 50.7487C96.3642 50.752 95.5385 52.0746 95.5405 53.7029C95.5425 55.3267 96.3671 56.6422 97.3848 56.6454H184.509C185.529 56.6422 186.355 55.3196 186.353 53.6912C186.351 52.0675 185.526 50.7519 184.509 50.7487H97.3848Z" fill="#E4E4E4"/>
<path d="M97.3848 67.8337C96.3642 67.8369 95.5385 69.1595 95.5405 70.7879C95.5425 72.4116 96.3671 73.7272 97.3848 73.7304H184.509C185.529 73.7271 186.355 72.4045 186.353 70.7762C186.351 69.1524 185.526 67.8369 184.509 67.8337H97.3848Z" fill="#E4E4E4"/>
<path d="M97.3848 84.712C96.3642 84.7152 95.5385 86.0379 95.5405 87.6662C95.5425 89.29 96.3671 90.6055 97.3848 90.6087H134.874C135.895 90.6054 136.721 89.2828 136.719 87.6545C136.717 86.0307 135.892 84.7152 134.874 84.712H97.3848Z" fill="#E4E4E4"/>
<path d="M53.1483 94.0485C66.2053 94.0485 76.7901 83.4854 76.7901 70.455C76.7901 57.4247 66.2053 46.8615 53.1483 46.8615C40.0913 46.8615 29.5065 57.4247 29.5065 70.455C29.5065 83.4854 40.0913 94.0485 53.1483 94.0485Z" fill="#E4E4E4"/>
<path d="M472.933 114.65H257.073V0H472.933V114.65Z" fill="white"/>
<path d="M472.675 0.771194H257.846V28.0198H472.675V0.771194Z" fill="#E4E4E4"/>
<path d="M472.933 114.65H257.073V0H472.933V114.65ZM258.619 113.107H471.387V1.54237H258.619V113.107Z" fill="#CACACA"/>
<path d="M354.458 50.7487C353.438 50.752 352.612 52.0746 352.614 53.7029C352.616 55.3267 353.441 56.6422 354.458 56.6454H441.582C442.603 56.6422 443.428 55.3196 443.426 53.6912C443.424 52.0675 442.6 50.7519 441.582 50.7487H354.458Z" fill="#E4E4E4"/>
<path d="M354.458 67.8337C353.438 67.8369 352.612 69.1595 352.614 70.7879C352.616 72.4116 353.441 73.7272 354.458 73.7304H441.582C442.603 73.7271 443.428 72.4045 443.426 70.7762C443.424 69.1524 442.6 67.8369 441.582 67.8337H354.458Z" fill="#E4E4E4"/>
<path d="M354.458 84.712C353.438 84.7152 352.612 86.0379 352.614 87.6662C352.616 89.29 353.441 90.6055 354.458 90.6087H391.948C392.968 90.6054 393.794 89.2828 393.792 87.6545C393.79 86.0307 392.965 84.7152 391.948 84.712H354.458Z" fill="#E4E4E4"/>
<path d="M310.222 94.0485C323.279 94.0485 333.864 83.4854 333.864 70.455C333.864 57.4247 323.279 46.8615 310.222 46.8615C297.165 46.8615 286.58 57.4247 286.58 70.455C286.58 83.4854 297.165 94.0485 310.222 94.0485Z" fill="#E4E4E4"/>
<path d="M373.218 227.02H99.7146V81.7531H373.218V227.02Z" fill="white"/>
<path d="M372.892 82.7303H100.694V117.256H372.892V82.7303Z" fill="#E66E4E"/>
<path d="M373.218 227.02H99.7146V81.7531H373.218V227.02ZM101.673 225.065H371.26V83.7074H101.673V225.065Z" fill="#3F3D56"/>
<path d="M223.106 146.054C221.812 146.058 220.766 147.734 220.769 149.797C220.771 151.855 221.816 153.521 223.106 153.525H333.495C334.788 153.521 335.835 151.846 335.832 149.782C335.83 147.725 334.785 146.058 333.495 146.054H223.106Z" fill="#E4E4E4"/>
<path d="M223.106 167.701C221.812 167.706 220.766 169.381 220.769 171.445C220.771 173.502 221.816 175.169 223.106 175.173H333.495C334.788 175.169 335.835 173.493 335.832 171.43C335.83 169.372 334.785 167.706 333.495 167.701H223.106Z" fill="#E4E4E4"/>
<path d="M223.106 189.087C221.812 189.091 220.766 190.767 220.769 192.83C220.771 194.888 221.816 196.554 223.106 196.559H270.606C271.9 196.554 272.946 194.879 272.943 192.815C272.941 190.758 271.896 189.091 270.606 189.087H223.106Z" fill="#E4E4E4"/>
<path d="M167.056 200.917C183.6 200.917 197.011 187.533 197.011 171.023C197.011 154.513 183.6 141.129 167.056 141.129C150.512 141.129 137.101 154.513 137.101 171.023C137.101 187.533 150.512 200.917 167.056 200.917Z" fill="#E4E4E4"/>
<path d="M490.447 395.46L483.137 398.71L467.097 372.118L477.886 367.322L490.447 395.46Z" fill="#FFB6B6"/>
<path d="M495.469 401.702L471.898 412.182L471.765 411.884C470.681 409.456 470.608 406.698 471.562 404.216C472.516 401.734 474.419 399.732 476.852 398.65L476.852 398.649L491.249 392.249L495.469 401.702Z" fill="#2F2E41"/>
<path d="M453.608 246.668C454.346 245.958 454.92 245.096 455.288 244.141C455.656 243.186 455.81 242.162 455.739 241.142C455.668 240.121 455.374 239.129 454.877 238.234C454.38 237.339 453.693 236.564 452.863 235.963L445.118 172.695L433.042 175.663L442.718 237.884C441.798 239.342 441.447 241.086 441.73 242.785C442.013 244.484 442.911 246.02 444.253 247.103C445.595 248.186 447.289 248.739 449.013 248.659C450.737 248.579 452.372 247.87 453.608 246.668Z" fill="#FFB6B6"/>
<path d="M449.476 182.887C448.927 183.38 448.236 183.686 447.501 183.759L431.701 185.349C431.205 185.399 430.704 185.341 430.232 185.181C429.76 185.02 429.328 184.759 428.966 184.417C428.604 184.075 428.32 183.659 428.134 183.197C427.947 182.735 427.863 182.239 427.886 181.742L428.624 165.959C428.508 164.792 428.625 163.614 428.969 162.492C429.313 161.371 429.876 160.329 430.628 159.427C431.762 158.043 433.282 157.026 434.995 156.504C436.708 155.981 438.539 155.978 440.254 156.494C441.969 157.009 443.493 158.021 444.633 159.4C445.772 160.78 446.476 162.466 446.656 164.245L450.518 179.465C450.672 180.076 450.657 180.717 450.473 181.321C450.29 181.924 449.945 182.465 449.476 182.887Z" fill="#E66E4E"/>
<path d="M439.634 223.167L395.703 214.452L395.41 208.331L395.416 208.292L400.152 176.895C399.516 175.572 393.882 163.189 402.067 156.248C403.997 154.606 405.777 152.798 407.388 150.844C409.942 147.655 413.232 145.132 416.977 143.492C420.722 141.851 424.809 141.142 428.889 141.425C431.417 141.63 433.871 142.378 436.082 143.619C438.293 144.86 440.208 146.564 441.697 148.613C444.95 152.969 446.421 158.395 445.813 163.794L439.634 223.167Z" fill="#E66E4E"/>
<path d="M395.299 404.44L387.297 404.44L383.489 373.635L395.301 373.636L395.299 404.44Z" fill="#FFB6B6"/>
<path d="M397.34 412.182L371.536 412.181V411.855C371.536 409.197 372.595 406.648 374.478 404.768C376.362 402.888 378.916 401.832 381.58 401.832H381.58L397.341 401.833L397.34 412.182Z" fill="#2F2E41"/>
<path d="M383.01 392.48L381.271 264.206C380.702 245.041 385.728 226.123 395.738 209.757C395.738 209.757 434.577 209.431 440.778 222.785L487.124 383.686L474.069 389.549L418.585 269.036L398.676 393.132L383.01 392.48Z" fill="#2F2E41"/>
<path d="M376.664 177.536C376.94 177.834 377.191 178.152 377.416 178.489L413.773 178.529L418.21 170.907L430.611 176.086L424.071 190.34C423.542 191.492 422.654 192.441 421.539 193.046C420.424 193.651 419.142 193.878 417.886 193.694L376.962 187.698C375.962 188.897 374.621 189.763 373.116 190.183C371.61 190.602 370.013 190.554 368.536 190.045C367.059 189.536 365.772 188.59 364.846 187.333C363.921 186.077 363.401 184.569 363.355 183.01C363.309 181.451 363.74 179.915 364.591 178.607C365.441 177.298 366.67 176.279 368.115 175.685C369.56 175.091 371.152 174.95 372.679 175.28C374.206 175.611 375.596 176.398 376.664 177.536Z" fill="#FFB6B6"/>
<path d="M410.425 179.322L415.722 152.188C416.274 149.357 417.859 146.831 420.17 145.099C422.481 143.367 425.353 142.552 428.232 142.811C429.995 142.969 431.699 143.526 433.215 144.439C434.731 145.352 436.019 146.596 436.981 148.079C437.944 149.562 438.557 151.243 438.772 152.997C438.988 154.75 438.801 156.53 438.226 158.201L429.949 182.254L410.425 179.322Z" fill="#E66E4E"/>
<path d="M428.885 135.127C437.739 135.127 444.917 127.964 444.917 119.128C444.917 110.291 437.739 103.128 428.885 103.128C420.03 103.128 412.852 110.291 412.852 119.128C412.852 127.964 420.03 135.127 428.885 135.127Z" fill="#FFB6B6"/>
<path d="M409.446 110.09H434.903V99.0158C429.316 96.8005 423.848 94.9165 420.543 99.0158C417.6 99.0158 414.777 100.183 412.696 102.259C410.615 104.336 409.446 107.153 409.446 110.09Z" fill="#2F2E41"/>
<path d="M436.313 97.0615C451.532 97.0615 455.792 116.099 455.792 126.839C455.792 132.828 453.077 134.971 448.812 135.695L447.306 127.678L443.778 136.04C442.58 136.046 441.321 136.023 440.016 135.999L438.82 133.541L436.153 135.955C425.469 135.971 416.834 137.525 416.834 126.839C416.834 116.099 420.57 97.0615 436.313 97.0615Z" fill="#2F2E41"/>
<path d="M553.347 413H304.648C304.475 413 304.309 412.931 304.187 412.809C304.064 412.687 303.996 412.521 303.996 412.349C303.996 412.176 304.064 412.01 304.187 411.888C304.309 411.766 304.475 411.697 304.648 411.697H553.347C553.52 411.697 553.686 411.766 553.809 411.888C553.931 412.01 554 412.176 554 412.349C554 412.521 553.931 412.687 553.809 412.809C553.686 412.931 553.52 413 553.347 413Z" fill="#CACACA"/>
</svg>
