<svg width="79" height="38" viewBox="0 0 79 38" fill="none" xmlns="http://www.w3.org/2000/svg">
<path d="M33.904 12.904C34.3333 12.904 34.6413 12.9973 34.828 13.184C35.0333 13.3707 35.136 13.6133 35.136 13.912C35.136 14.3973 34.9867 14.8267 34.688 15.2C34.408 15.5733 33.96 15.7693 33.344 15.788C31.8693 15.8067 30.544 15.6947 29.368 15.452C28.0613 18.2333 26.484 20.548 24.636 22.396C22.8067 24.2253 20.996 25.14 19.204 25.14C17.5613 25.14 16.3293 24.272 15.508 22.536C14.6867 20.7813 14.22 18.4387 14.108 15.508C12.988 18.756 11.7187 21.1733 10.3 22.76C8.9 24.3467 7.40667 25.14 5.82 25.14C4.028 25.14 2.67467 24.0293 1.76 21.808C0.845333 19.568 0.388 16.5627 0.388 12.792C0.388 10.048 0.630667 7.03333 1.116 3.748C1.24667 2.81467 1.48 2.17067 1.816 1.816C2.17067 1.44267 2.72133 1.256 3.468 1.256C4.028 1.256 4.45733 1.37733 4.756 1.62C5.07333 1.86267 5.232 2.31067 5.232 2.964C5.232 3.09467 5.21333 3.34667 5.176 3.72C4.616 7.54667 4.336 10.804 4.336 13.492C4.336 15.9933 4.55067 17.9253 4.98 19.288C5.40933 20.6507 5.988 21.332 6.716 21.332C7.36933 21.332 8.15333 20.6507 9.068 19.288C10.0013 17.9067 10.9253 15.872 11.84 13.184C12.7547 10.4773 13.5293 7.25733 14.164 3.524C14.3133 2.66533 14.584 2.07733 14.976 1.76C15.3867 1.424 15.9373 1.256 16.628 1.256C17.2067 1.256 17.6267 1.38667 17.888 1.648C18.168 1.89067 18.308 2.264 18.308 2.768C18.308 3.06667 18.2893 3.3 18.252 3.468C17.7293 6.51067 17.468 9.55333 17.468 12.596C17.468 14.668 17.5333 16.32 17.664 17.552C17.8133 18.784 18.084 19.7267 18.476 20.38C18.8867 21.0147 19.4747 21.332 20.24 21.332C21.136 21.332 22.1347 20.66 23.236 19.316C24.3373 17.9533 25.3453 16.264 26.26 14.248C25.1213 13.5387 24.2627 12.624 23.684 11.504C23.1053 10.3653 22.816 9.05867 22.816 7.584C22.816 6.10933 23.04 4.868 23.488 3.86C23.9547 2.83333 24.58 2.068 25.364 1.564C26.1667 1.06 27.0533 0.807999 28.024 0.807999C29.2187 0.807999 30.1613 1.23733 30.852 2.096C31.5613 2.95467 31.916 4.13067 31.916 5.624C31.916 7.73333 31.4587 10.076 30.544 12.652C31.496 12.82 32.616 12.904 33.904 12.904ZM25.644 7.388C25.644 9.21733 26.232 10.5707 27.408 11.448C28.136 9.35733 28.5 7.63067 28.5 6.268C28.5 5.484 28.3973 4.91467 28.192 4.56C27.9867 4.18667 27.7067 4 27.352 4C26.848 4 26.4373 4.29867 26.12 4.896C25.8027 5.47467 25.644 6.30533 25.644 7.388ZM55.3743 7.08C55.3743 8.66667 54.8143 10.0387 53.6943 11.196C52.5743 12.3347 50.941 13.156 48.7943 13.66C49.9516 13.9773 50.829 14.5 51.4263 15.228C52.0236 15.9373 52.3223 16.7587 52.3223 17.692C52.3223 19.1667 51.8556 20.4453 50.9223 21.528C50.0076 22.6107 48.6636 23.4507 46.8903 24.048C45.117 24.6267 42.9796 24.916 40.4783 24.916C39.545 24.916 38.7983 24.888 38.2383 24.832C38.2196 25.3547 37.9956 25.7467 37.5663 26.008C37.137 26.2693 36.5863 26.4 35.9143 26.4C35.2423 26.4 34.7756 26.2507 34.5143 25.952C34.2716 25.6533 34.169 25.2147 34.2063 24.636C34.3743 22.0227 34.701 19.288 35.1863 16.432C35.6716 13.5573 36.2876 10.7853 37.0343 8.116C37.165 7.64933 37.4263 7.32267 37.8183 7.136C38.2103 6.94933 38.7236 6.856 39.3583 6.856C40.497 6.856 41.0663 7.17333 41.0663 7.808C41.0663 8.06933 41.0103 8.368 40.8983 8.704C40.413 10.16 39.9276 12.1387 39.4423 14.64C38.957 17.1227 38.6116 19.4933 38.4063 21.752C39.3023 21.8267 40.0303 21.864 40.5903 21.864C43.2036 21.864 45.117 21.4907 46.3303 20.744C47.5623 19.9787 48.1783 19.008 48.1783 17.832C48.1783 17.0107 47.8236 16.32 47.1143 15.76C46.4236 15.2 45.257 14.892 43.6143 14.836C43.241 14.8173 42.9796 14.724 42.8303 14.556C42.681 14.388 42.6063 14.1173 42.6063 13.744C42.6063 13.2027 42.7183 12.764 42.9423 12.428C43.1663 12.092 43.577 11.9147 44.1743 11.896C45.4996 11.8587 46.6943 11.6627 47.7583 11.308C48.841 10.9533 49.6903 10.4587 50.3063 9.824C50.9223 9.17067 51.2303 8.41467 51.2303 7.556C51.2303 6.47333 50.6983 5.624 49.6343 5.008C48.5703 4.37333 46.937 4.056 44.7343 4.056C42.737 4.056 40.805 4.31733 38.9383 4.84C37.0716 5.344 35.485 5.988 34.1783 6.772C33.581 7.12667 33.077 7.304 32.6663 7.304C32.3303 7.304 32.069 7.192 31.8823 6.968C31.7143 6.72533 31.6303 6.42667 31.6303 6.072C31.6303 5.60533 31.7236 5.204 31.9103 4.868C32.1156 4.532 32.5916 4.14933 33.3383 3.72C34.9063 2.824 36.745 2.124 38.8543 1.62C40.9636 1.116 43.1196 0.863999 45.3223 0.863999C48.701 0.863999 51.221 1.43333 52.8823 2.572C54.5436 3.71067 55.3743 5.21333 55.3743 7.08ZM57.8836 25.14C57.0436 25.14 56.3529 24.7573 55.8116 23.992C55.2889 23.208 55.0276 22.2373 55.0276 21.08C55.0276 19.68 55.1209 18.4013 55.3076 17.244C55.4943 16.068 55.8023 14.8267 56.2316 13.52C56.4183 12.96 56.6796 12.5587 57.0156 12.316C57.3516 12.0733 57.8836 11.952 58.6116 11.952C59.0223 11.952 59.3023 12.0173 59.4516 12.148C59.6196 12.2787 59.7036 12.4747 59.7036 12.736C59.7036 12.8853 59.6009 13.3893 59.3956 14.248C59.2089 14.9387 59.0596 15.564 58.9476 16.124C58.5743 18.084 58.3876 19.3907 58.3876 20.044C58.3876 20.436 58.4343 20.716 58.5276 20.884C58.6209 21.0333 58.7703 21.108 58.9756 21.108C59.2556 21.108 59.6009 20.828 60.0116 20.268C60.4409 19.708 60.8889 18.8587 61.3556 17.72C61.8409 16.5813 62.3076 15.1813 62.7556 13.52C62.9049 12.96 63.1289 12.5587 63.4276 12.316C63.7449 12.0733 64.2116 11.952 64.8276 11.952C65.2569 11.952 65.5556 12.008 65.7236 12.12C65.8916 12.2133 65.9756 12.4 65.9756 12.68C65.9756 13.1467 65.7423 14.4253 65.2756 16.516C64.7529 18.9053 64.4916 20.38 64.4916 20.94C64.4916 21.2947 64.5663 21.5747 64.7156 21.78C64.8649 21.9667 65.0609 22.06 65.3036 22.06C65.6769 22.06 66.1156 21.836 66.6196 21.388C67.1423 20.9213 67.8329 20.1747 68.6916 19.148C68.9156 18.8867 69.1676 18.756 69.4476 18.756C69.6903 18.756 69.8769 18.868 70.0076 19.092C70.1569 19.316 70.2316 19.624 70.2316 20.016C70.2316 20.7627 70.0543 21.3413 69.6996 21.752C68.8969 22.7413 68.0289 23.5533 67.0956 24.188C66.1809 24.8227 65.1356 25.14 63.9596 25.14C63.0636 25.14 62.4009 24.7947 61.9716 24.104C61.5609 23.4133 61.3556 22.4427 61.3556 21.192C61.0383 22.4613 60.5623 23.4413 59.9276 24.132C59.2929 24.804 58.6116 25.14 57.8836 25.14ZM77.4532 12.876C77.9199 12.876 78.2465 12.9507 78.4332 13.1C78.6385 13.2307 78.7412 13.5013 78.7412 13.912C78.7412 14.136 78.7319 14.3133 78.7132 14.444C78.6385 15.0227 78.4052 16.516 78.0132 18.924C77.7332 20.548 77.5559 21.6213 77.4812 22.144C76.7719 26.96 75.8105 30.7587 74.5972 33.54C73.4025 36.34 71.7972 37.74 69.7812 37.74C68.8292 37.74 68.0545 37.4413 67.4572 36.844C66.8599 36.2653 66.5612 35.5 66.5612 34.548C66.5612 33.2227 67.0839 31.7947 68.1292 30.264C69.1745 28.752 71.1345 26.8853 74.0092 24.664L74.1772 23.572C73.8599 24.076 73.4399 24.468 72.9172 24.748C72.4132 25.0093 71.9092 25.14 71.4052 25.14C70.2479 25.14 69.3239 24.72 68.6332 23.88C67.9425 23.04 67.5972 21.9387 67.5972 20.576C67.5972 19.0827 67.9425 17.6733 68.6332 16.348C69.3239 15.004 70.2385 13.9307 71.3772 13.128C72.5345 12.3067 73.7572 11.896 75.0452 11.896C75.4559 11.896 75.7265 11.98 75.8572 12.148C76.0065 12.2973 76.1279 12.5773 76.2212 12.988C76.5759 12.9133 76.9865 12.876 77.4532 12.876ZM72.4132 22.312C72.8425 22.312 73.2532 22.0507 73.6452 21.528C74.0372 21.0053 74.3172 20.2587 74.4852 19.288L75.3812 14.5C74.6159 14.5187 73.9065 14.8173 73.2532 15.396C72.5999 15.956 72.0772 16.7027 71.6852 17.636C71.2932 18.5693 71.0972 19.5587 71.0972 20.604C71.0972 21.1827 71.2092 21.612 71.4332 21.892C71.6759 22.172 72.0025 22.312 72.4132 22.312ZM70.0892 35.024C70.5559 35.024 71.0785 34.464 71.6572 33.344C72.2545 32.224 72.8239 30.4413 73.3652 27.996C71.9279 29.228 70.8919 30.3387 70.2572 31.328C69.6225 32.3173 69.3052 33.1853 69.3052 33.932C69.3052 34.2493 69.3612 34.5107 69.4732 34.716C69.6039 34.9213 69.8092 35.024 70.0892 35.024Z" fill="#444"/>
</svg>
