<svg width="71" height="28" viewBox="0 0 71 28" fill="none" xmlns="http://www.w3.org/2000/svg">
<path d="M23.548 3.76C24.1267 3.872 24.556 4.068 24.836 4.348C25.1347 4.628 25.284 4.95467 25.284 5.328C25.284 5.944 25.1067 6.392 24.752 6.672C24.416 6.952 23.8747 7.064 23.128 7.008C21.448 6.87733 20.132 6.79333 19.18 6.756C18.2467 6.7 17.0147 6.66267 15.484 6.644C14.7933 10.0787 14.1587 13.532 13.58 17.004C13.3747 18.2733 13.16 19.748 12.936 21.428C12.712 23.0893 12.5627 24.4333 12.488 25.46C12.4507 26.0013 12.2267 26.4213 11.816 26.72C11.4053 27 10.9107 27.14 10.332 27.14C9.716 27.14 9.24 26.9907 8.904 26.692C8.568 26.3933 8.4 26.0013 8.4 25.516C8.4 25.068 8.46533 24.3307 8.596 23.304C8.74533 22.2587 8.91333 21.1667 9.1 20.028C9.30533 18.8893 9.464 17.9 9.576 17.06C9.78133 15.6413 10.0147 14.232 10.276 12.832C10.5373 11.432 10.7987 10.1067 11.06 8.856C11.116 8.576 11.1813 8.25867 11.256 7.904C11.3307 7.53067 11.4147 7.12 11.508 6.672C9.67867 6.728 8.24133 6.87733 7.196 7.12C6.15067 7.36267 5.404 7.708 4.956 8.156C4.52667 8.58533 4.312 9.14533 4.312 9.836C4.312 10.4707 4.49867 11.0773 4.872 11.656C4.94667 11.7867 4.984 11.9267 4.984 12.076C4.984 12.4307 4.76933 12.7667 4.34 13.084C3.92933 13.3827 3.5 13.532 3.052 13.532C2.73467 13.532 2.47333 13.4387 2.268 13.252C1.89467 12.9347 1.58667 12.4867 1.344 11.908C1.10133 11.3107 0.98 10.6387 0.98 9.892C0.98 8.30533 1.49333 7.036 2.52 6.084C3.56533 5.11333 5.14267 4.404 7.252 3.956C9.38 3.508 12.1053 3.284 15.428 3.284C17.4813 3.284 19.1147 3.32133 20.328 3.396C21.56 3.47067 22.6333 3.592 23.548 3.76ZM36.4074 20.756C36.6501 20.756 36.8368 20.868 36.9674 21.092C37.1168 21.316 37.1914 21.624 37.1914 22.016C37.1914 22.7627 37.0141 23.3413 36.6594 23.752C35.8008 24.7413 34.9141 25.5533 33.9994 26.188C33.1034 26.8227 32.0768 27.14 30.9194 27.14C29.9674 27.14 29.2488 26.8693 28.7634 26.328C28.2781 25.768 28.0354 24.9653 28.0354 23.92C28.0354 23.3973 28.1661 22.464 28.4274 21.12C28.6701 19.944 28.7914 19.132 28.7914 18.684C28.7914 18.3853 28.6888 18.236 28.4834 18.236C28.2408 18.236 27.8954 18.5533 27.4474 19.188C26.9994 19.804 26.5514 20.6253 26.1034 21.652C25.6554 22.6787 25.2914 23.7613 25.0114 24.9C24.6568 26.3933 23.7794 27.14 22.3794 27.14C21.8194 27.14 21.4461 26.944 21.2594 26.552C21.0914 26.1413 21.0074 25.4133 21.0074 24.368C21.0074 23.7707 21.0168 23.2947 21.0354 22.94L21.0634 20.7C21.0634 17.8253 21.3528 14.8293 21.9314 11.712C22.5288 8.59467 23.3968 5.98133 24.5354 3.872C25.6928 1.744 27.0741 0.679998 28.6794 0.679998C29.5381 0.679998 30.2288 1.05333 30.7514 1.8C31.2928 2.528 31.5634 3.48 31.5634 4.656C31.5634 6.54133 31.0128 8.50133 29.9114 10.536C28.8101 12.552 27.0181 14.9133 24.5354 17.62C24.4794 18.5907 24.4514 19.5893 24.4514 20.616C25.0674 19.0293 25.7488 17.7413 26.4954 16.752C27.2608 15.744 28.0074 15.0253 28.7354 14.596C29.4821 14.1667 30.1634 13.952 30.7794 13.952C31.9928 13.952 32.5994 14.5587 32.5994 15.772C32.5994 16.5 32.3941 17.816 31.9834 19.72C31.6288 21.344 31.4514 22.4173 31.4514 22.94C31.4514 23.6867 31.7221 24.06 32.2634 24.06C32.6368 24.06 33.0754 23.836 33.5794 23.388C34.1021 22.9213 34.7928 22.1747 35.6514 21.148C35.8754 20.8867 36.1274 20.756 36.4074 20.756ZM28.0914 3.452C27.7554 3.452 27.3821 3.93733 26.9714 4.908C26.5608 5.86 26.1594 7.15733 25.7674 8.8C25.3941 10.424 25.0861 12.1973 24.8434 14.12C26.0008 12.7573 26.9528 11.2733 27.6994 9.668C28.4648 8.06267 28.8474 6.60667 28.8474 5.3C28.8474 4.70267 28.7821 4.24533 28.6514 3.928C28.5208 3.61067 28.3341 3.452 28.0914 3.452ZM38.5901 12.104C37.8061 12.104 37.2181 11.9267 36.8261 11.572C36.4341 11.1987 36.2381 10.6853 36.2381 10.032C36.2381 9.37867 36.4901 8.83733 36.9941 8.408C37.5168 7.96 38.1608 7.736 38.9261 7.736C39.6168 7.736 40.1768 7.904 40.6061 8.24C41.0355 8.576 41.2501 9.052 41.2501 9.668C41.2501 10.4147 41.0075 11.012 40.5221 11.46C40.0368 11.8893 39.3928 12.104 38.5901 12.104ZM38.3661 27.14C37.1528 27.14 36.2661 26.7107 35.7061 25.852C35.1648 24.9933 34.8941 23.8547 34.8941 22.436C34.8941 21.596 34.9968 20.5227 35.2021 19.216C35.4261 17.8907 35.7061 16.6587 36.0421 15.52C36.2101 14.9227 36.4341 14.512 36.7141 14.288C36.9941 14.064 37.4421 13.952 38.0581 13.952C39.0101 13.952 39.4861 14.2693 39.4861 14.904C39.4861 15.3707 39.3088 16.4533 38.9541 18.152C38.5061 20.2053 38.2821 21.596 38.2821 22.324C38.2821 22.884 38.3568 23.3133 38.5061 23.612C38.6555 23.9107 38.9075 24.06 39.2621 24.06C39.5981 24.06 40.0181 23.8267 40.5221 23.36C41.0261 22.8933 41.6981 22.156 42.5381 21.148C42.7621 20.8867 43.0141 20.756 43.2941 20.756C43.5368 20.756 43.7235 20.868 43.8541 21.092C44.0035 21.316 44.0781 21.624 44.0781 22.016C44.0781 22.7627 43.9008 23.3413 43.5461 23.752C41.6981 26.0107 39.9715 27.14 38.3661 27.14ZM52.4248 20.756C52.6674 20.756 52.8541 20.868 52.9848 21.092C53.1341 21.316 53.2088 21.624 53.2088 22.016C53.2088 22.7627 53.0314 23.3413 52.6768 23.752C51.8741 24.7413 50.9968 25.5533 50.0448 26.188C49.1114 26.8227 48.0474 27.14 46.8528 27.14C45.2101 27.14 43.9874 26.3933 43.1848 24.9C42.4008 23.4067 42.0088 21.4747 42.0088 19.104C42.0088 16.8267 42.2981 14.232 42.8768 11.32C43.4741 8.408 44.3421 5.90667 45.4808 3.816C46.6381 1.72533 48.0101 0.679998 49.5968 0.679998C50.4928 0.679998 51.1928 1.1 51.6968 1.94C52.2194 2.76133 52.4808 3.94667 52.4808 5.496C52.4808 7.71733 51.8648 10.2933 50.6328 13.224C49.4008 16.1547 47.7301 19.0573 45.6208 21.932C45.7514 22.6973 45.9661 23.248 46.2648 23.584C46.5634 23.9013 46.9554 24.06 47.4408 24.06C48.2061 24.06 48.8781 23.8453 49.4568 23.416C50.0354 22.968 50.7728 22.212 51.6688 21.148C51.8928 20.8867 52.1448 20.756 52.4248 20.756ZM48.9808 3.452C48.5514 3.452 48.0661 4.22667 47.5248 5.776C46.9834 7.32533 46.5074 9.248 46.0968 11.544C45.6861 13.84 45.4621 16.0427 45.4248 18.152C46.7501 15.968 47.8048 13.784 48.5888 11.6C49.3728 9.39733 49.7648 7.39067 49.7648 5.58C49.7648 4.16133 49.5034 3.452 48.9808 3.452ZM61.5576 20.756C61.8002 20.756 61.9869 20.868 62.1176 21.092C62.2669 21.316 62.3416 21.624 62.3416 22.016C62.3416 22.7627 62.1642 23.3413 61.8096 23.752C61.0069 24.7413 60.1296 25.5533 59.1776 26.188C58.2442 26.8227 57.1802 27.14 55.9856 27.14C54.3429 27.14 53.1202 26.3933 52.3176 24.9C51.5336 23.4067 51.1416 21.4747 51.1416 19.104C51.1416 16.8267 51.4309 14.232 52.0096 11.32C52.6069 8.408 53.4749 5.90667 54.6136 3.816C55.7709 1.72533 57.1429 0.679998 58.7296 0.679998C59.6256 0.679998 60.3256 1.1 60.8296 1.94C61.3522 2.76133 61.6136 3.94667 61.6136 5.496C61.6136 7.71733 60.9976 10.2933 59.7656 13.224C58.5336 16.1547 56.8629 19.0573 54.7536 21.932C54.8842 22.6973 55.0989 23.248 55.3976 23.584C55.6962 23.9013 56.0882 24.06 56.5736 24.06C57.3389 24.06 58.0109 23.8453 58.5896 23.416C59.1682 22.968 59.9056 22.212 60.8016 21.148C61.0256 20.8867 61.2776 20.756 61.5576 20.756ZM58.1136 3.452C57.6842 3.452 57.1989 4.22667 56.6576 5.776C56.1162 7.32533 55.6402 9.248 55.2296 11.544C54.8189 13.84 54.5949 16.0427 54.5576 18.152C55.8829 15.968 56.9376 13.784 57.7216 11.6C58.5056 9.39733 58.8976 7.39067 58.8976 5.58C58.8976 4.16133 58.6362 3.452 58.1136 3.452ZM64.8104 27.14C63.709 27.14 62.7664 26.8693 61.9824 26.328C61.217 25.768 60.6384 25.04 60.2464 24.144C59.8544 23.248 59.6584 22.2867 59.6584 21.26C59.6584 19.8413 59.9197 18.5813 60.4424 17.48C60.9837 16.36 61.7117 15.492 62.6264 14.876C63.541 14.2413 64.5677 13.924 65.7064 13.924C66.8077 13.924 67.7504 14.204 68.5344 14.764C69.3184 15.3053 69.9064 16.024 70.2984 16.92C70.6904 17.816 70.8864 18.7773 70.8864 19.804C70.8864 21.2227 70.6157 22.492 70.0744 23.612C69.533 24.7133 68.7957 25.5813 67.8624 26.216C66.9477 26.832 65.9304 27.14 64.8104 27.14ZM65.1184 24.116C65.753 24.116 66.285 23.7707 66.7144 23.08C67.1624 22.3893 67.3864 21.3813 67.3864 20.056C67.3864 19.0293 67.1997 18.2547 66.8264 17.732C66.453 17.2093 66.005 16.948 65.4824 16.948C64.8104 16.948 64.2504 17.2933 63.8024 17.984C63.373 18.656 63.1584 19.664 63.1584 21.008C63.1584 22.072 63.345 22.856 63.7184 23.36C64.0917 23.864 64.5584 24.116 65.1184 24.116Z" fill="#444444"/>
</svg>
